Coordinates
version=1
nRows=13
nColumns=40
inDegrees=yes

Units are S.I. units (second, meters, Newtons, ...)
If the header above contains a line with 'inDegrees', this indicates whether rotational values are in degrees (yes) or radians (no).

endheader
time	pelvis_tilt	pelvis_list	pelvis_rotation	pelvis_tx	pelvis_ty	pelvis_tz	hip_flexion_r	hip_adduction_r	hip_rotation_r	knee_angle_r	knee_angle_r_beta	ankle_angle_r	subtalar_angle_r	mtp_angle_r	hip_flexion_l	hip_adduction_l	hip_rotation_l	knee_angle_l	knee_angle_l_beta	ankle_angle_l	subtalar_angle_l	mtp_angle_l	lumbar_extension	lumbar_bending	lumbar_rotation	arm_flex_r	arm_add_r	arm_rot_r	elbow_flex_r	pro_sup_r	wrist_flex_r	wrist_dev_r	arm_flex_l	arm_add_l	arm_rot_l	elbow_flex_l	pro_sup_l	wrist_flex_l	wrist_dev_l
      4.02500000	    -32.19893709	      2.00823325	      2.88469112	     -0.34687645	      0.83072388	     -1.10999749	     16.27864777	      2.00359426	     10.22091447	     69.23230562	      1.20833168	    -10.59728766	      0.00000000	      0.00000000	     75.17122300	      6.13171860	     -2.54451470	     74.72028744	      1.30411503	     20.70228608	      0.00000000	      0.00000000	     -5.74414839	     -9.45153827	      4.61744472	     89.96485002	     -5.33573683	      6.61545583	     50.06551170	     77.02850032	      0.00000000	      0.00000000	     89.97033331	     -3.33181239	     14.33918769	     55.81118155	     41.48825145	      0.00000000	      0.00000000
      4.03000000	    -32.09721815	      2.01516788	      2.88017628	     -0.34641219	      0.83253277	     -1.10994978	     16.18062234	      2.00158144	     10.15976517	     69.10099418	      1.20603986	    -10.54198994	      0.00000000	      0.00000000	     74.83533862	      6.14313766	     -2.53853941	     74.34911160	      1.29763679	     20.63555456	      0.00000000	      0.00000000	     -5.71474834	     -9.44390284	      4.55004873	     89.96459273	     -5.30951140	      6.65972295	     49.98619404	     77.10147968	      0.00000000	      0.00000000	     89.97024380	     -3.38836922	     14.36051833	     55.76133261	     41.49965118	      0.00000000	      0.00000000
      4.03500000	    -31.93046785	      2.02572290	      2.85680125	     -0.34599411	      0.83442774	     -1.10994575	     16.03167703	      1.99903926	     10.09082906	     69.09395713	      1.20591705	    -10.53418729	      0.00000000	      0.00000000	     74.45036305	      6.12876140	     -2.55580325	     74.01248621	      1.29176157	     20.53111585	      0.00000000	      0.00000000	     -5.74844486	     -9.42943790	      4.51649507	     89.96448742	     -5.28646466	      6.68650995	     49.91335751	     77.16282576	      0.00000000	      0.00000000	     89.97015617	     -3.44735749	     14.38507464	     55.72921538	     41.51039589	      0.00000000	      0.00000000
      4.04000000	    -31.82824935	      2.04269688	      2.87901163	     -0.34556942	      0.83629228	     -1.10998516	     15.94822012	      1.98190236	      9.98726194	     69.04528027	      1.20506747	    -10.52424658	      0.00000000	      0.00000000	     74.11191929	      6.14591774	     -2.60179133	     73.65354845	      1.28549693	     20.45213454	      0.00000000	      0.00000000	     -5.70763521	     -9.41167067	      4.49024722	     89.96428244	     -5.30947829	      6.70367220	     49.80747443	     77.21075092	      0.00000000	      0.00000000	     89.96996475	     -3.50260033	     14.39780057	     55.68778505	     41.51888732	      0.00000000	      0.00000000
      4.04500000	    -31.63087551	      2.03959846	      2.89521712	     -0.34498688	      0.83837435	     -1.11000014	     15.74399937	      1.98441664	      9.84820192	     68.97397282	      1.20382292	    -10.60833229	      0.00000000	      0.00000000	     73.63846321	      6.16478316	     -2.59609012	     73.19841501	      1.27755335	     20.35531861	      0.00000000	      0.00000000	     -5.77276904	     -9.38588795	      4.37875931	     89.96412109	     -5.26085489	      6.76373878	     49.69454189	     77.28359608	      0.00000000	      0.00000000	     89.96996259	     -3.55877991	     14.44841580	     55.60474788	     41.53159976	      0.00000000	      0.00000000
      4.05000000	    -31.26293122	      2.22833196	      3.05755166	     -0.34416711	      0.84052301	     -1.11035081	     15.30794924	      1.71772751	      9.63650827	     68.87289040	      1.20205870	    -10.58862120	      0.00000000	      0.00000000	     72.96854553	      6.43432116	     -2.69766552	     72.78423436	      1.27032453	     20.37440944	      0.00000000	      0.00000000	     -6.03127402	     -9.53950755	      4.06579935	     89.96419503	     -5.21488146	      6.86180826	     49.52284623	     77.53306072	      0.00000000	      0.00000000	     89.96989873	     -3.72016639	     14.57889291	     55.53570029	     41.59095269	      0.00000000	      0.00000000
      4.05500000	    -31.20168887	      2.20177634	      2.99840816	     -0.34381200	      0.84230268	     -1.11034003	     15.28616282	      1.75934501	      9.57466514	     68.85321775	      1.20171535	    -10.61493990	      0.00000000	      0.00000000	     72.70055250	      6.34797861	     -2.73884938	     72.47002726	      1.26484058	     20.31169988	      0.00000000	      0.00000000	     -5.94036230	     -9.47884432	      4.08958176	     89.96399271	     -5.24241468	      6.84318026	     49.46870244	     77.57520696	      0.00000000	      0.00000000	     89.96979874	     -3.81883799	     14.56203243	     55.51373974	     41.60152418	      0.00000000	      0.00000000
      4.06000000	    -31.07642636	      2.18005903	      3.02667857	     -0.34340687	      0.84432852	     -1.11032513	     15.22348848	      1.80785500	      9.50607859	     68.86757462	      1.20196592	    -10.61370990	      0.00000000	      0.00000000	     72.30557462	      6.29429908	     -2.82591033	     72.02501443	      1.25707365	     20.20746895	      0.00000000	      0.00000000	     -5.91833477	     -9.46068057	      4.00200731	     89.96395035	     -5.27250828	      6.85833271	     49.32149631	     77.62904198	      0.00000000	      0.00000000	     89.96967149	     -3.84884138	     14.60576520	     55.43923101	     41.61409521	      0.00000000	      0.00000000
      4.06500000	    -30.93746382	      2.19438404	      3.04183821	     -0.34302312	      0.84610563	     -1.11031775	     15.12480046	      1.81070725	      9.41940671	     68.88474698	      1.20226564	    -10.63263139	      0.00000000	      0.00000000	     71.94934942	      6.28602175	     -2.87685932	     71.70096568	      1.25141793	     20.13845536	      0.00000000	      0.00000000	     -5.88734230	     -9.47223823	      3.94803828	     89.96381894	     -5.32874855	      6.90963266	     49.15743695	     77.66854114	      0.00000000	      0.00000000	     89.96963370	     -3.91746045	     14.63928615	     55.37091432	     41.62425188	      0.00000000	      0.00000000
      4.07000000	    -30.81141479	      2.19369908	      3.10125244	     -0.34241156	      0.84819025	     -1.11053850	     14.98948924	      1.74763200	      9.24020838	     68.73437084	      1.19964108	    -10.61265645	      0.00000000	      0.00000000	     71.52786941	      6.30430300	     -2.92769432	     71.19392426	      1.24256839	     20.02705432	      0.00000000	      0.00000000	     -5.86668166	     -9.43386144	      3.82969444	     89.96380686	     -5.36120493	      6.99343007	     48.99402113	     77.72274932	      0.00000000	      0.00000000	     89.96945601	     -4.00135245	     14.71207761	     55.24269257	     41.63666650	      0.00000000	      0.00000000
      4.07500000	    -30.42416579	      2.42121135	      3.33427094	     -0.34160209	      0.85039282	     -1.11113733	     14.52789164	      1.39676443	      8.90649674	     68.67656025	      1.19863210	    -10.70475210	      0.00000000	      0.00000000	     70.84815159	      6.66628543	     -3.02137449	     70.78665680	      1.23546023	     19.92865026	      0.00000000	      0.00000000	     -6.14108442	     -9.62689834	      3.45161697	     89.96386765	     -5.38769544	      7.16610952	     48.79910314	     77.89706984	      0.00000000	      0.00000000	     89.96949274	     -4.12146057	     14.86752895	     55.11455271	     41.69770305	      0.00000000	      0.00000000
      4.08000000	    -30.34170196	      2.35060713	      3.34769904	     -0.34122489	      0.85216840	     -1.11105018	     14.51772493	      1.51248346	      8.84135309	     68.70471640	      1.19912351	    -10.66940333	      0.00000000	      0.00000000	     70.55286828	      6.55585046	     -3.08384093	     70.46503958	      1.22984695	     19.83994720	      0.00000000	      0.00000000	     -6.02409706	     -9.58067556	      3.40719646	     89.96392423	     -5.50024347	      7.17237840	     48.64036341	     77.92364802	      0.00000000	      0.00000000	     89.96934992	     -4.16737629	     14.88233383	     55.06470573	     41.70776511	      0.00000000	      0.00000000
      4.08500000	    -30.22564654	      2.34005107	      3.37377549	     -0.34081075	      0.85410409	     -1.11105191	     14.47097590	      1.55264170	      8.75163201	     68.73932699	      1.19972758	    -10.69816540	      0.00000000	      0.00000000	     70.17577017	      6.50882028	     -3.14210066	     70.04007006	      1.22242983	     19.68103687	      0.00000000	      0.00000000	     -5.97495170	     -9.55382557	      3.33489651	     89.96394581	     -5.55528629	      7.26289059	     48.49039965	     77.96551612	      0.00000000	      0.00000000	     89.96924835	     -4.23149770	     14.95342716	     54.91713176	     41.72077173	      0.00000000	      0.00000000
